<?xml version="1.0" standalone="no"?><!DOCTYPE svg PUBLIC "-//W3C//DTD SVG 1.1//EN" "http://www.w3.org/Graphics/SVG/1.1/DTD/svg11.dtd"><svg t="1613974673787" class="icon" viewBox="0 0 1024 1024" version="1.1" xmlns="http://www.w3.org/2000/svg" p-id="27945" fill="#b3b6bf" xmlns:xlink="http://www.w3.org/1999/xlink" width="128" height="128"><defs><style type="text/css"></style></defs><path d="M214.848 96v29.696h237.696V96H571.52l-0.064 29.696h237.696V96H928v118.848h-29.76v237.696h29.76V571.52l-29.76-0.064v237.696h29.76V928h-118.848l-0.064-29.76H571.392v29.76H452.608v-29.76H214.848v29.76H96v-118.848l29.696-0.064V571.392H96V452.608h29.696V214.848H96V96h118.848z m237.696 89.088H214.848v29.76h-29.76v237.696h29.76V571.52l-29.76-0.064v237.696h29.76v29.76h237.696v-29.696H571.52l-0.064 29.696h237.696v-29.696l29.76-0.064V571.392h-29.696V452.608h29.696V214.848h-29.696l-0.064-29.76H571.392v29.76H452.608v-29.76z" p-id="27946" fill="#b3b6bf"></path></svg>