<?xml version="1.0" standalone="no"?><!DOCTYPE svg PUBLIC "-//W3C//DTD SVG 1.1//EN" "http://www.w3.org/Graphics/SVG/1.1/DTD/svg11.dtd"><svg t="1613975141903" class="icon" viewBox="0 0 1194 1024" version="1.1" xmlns="http://www.w3.org/2000/svg" p-id="29561" fill="#697187" xmlns:xlink="http://www.w3.org/1999/xlink" width="149.25" height="128"><defs><style type="text/css"></style></defs><path d="M1171.678912 0H22.490185A22.490185 22.490185 0 0 0 0 22.490185v979.01963a22.490185 22.490185 0 0 0 22.490185 22.490185h1149.188727A22.490185 22.490185 0 0 0 1194.169096 1001.509815V22.490185A22.490185 22.490185 0 0 0 1171.678912 0z m-22.490185 979.019631H44.980369V44.980369h1104.208358z" p-id="29562" fill="#697187"></path><path d="M1051.067833 523.245092H578.574927a22.490185 22.490185 0 0 1 0-44.980369h472.492906a22.490185 22.490185 0 1 1 0 44.980369zM1051.067833 274.459864H580.366181a22.490185 22.490185 0 0 1 0-44.980369h470.701652a22.490185 22.490185 0 1 1 0 44.980369zM434.876579 251.969679a22.490185 22.490185 0 0 1-22.490184 22.490185h-108.072304v244.804665a22.490185 22.490185 0 0 1-44.980369 0v-244.804665H151.062391a22.490185 22.490185 0 0 1 0-44.980369h261.324004a22.490185 22.490185 0 0 1 22.490184 22.490184z" p-id="29563" fill="#697187"></path></svg>