<?xml version="1.0" standalone="no"?><!DOCTYPE svg PUBLIC "-//W3C//DTD SVG 1.1//EN" "http://www.w3.org/Graphics/SVG/1.1/DTD/svg11.dtd"><svg t="1648560121508" class="icon" viewBox="0 0 1024 1024" version="1.1" xmlns="http://www.w3.org/2000/svg" p-id="1601" fill="#b3b6bf" xmlns:xlink="http://www.w3.org/1999/xlink" width="200" height="200"><defs><style type="text/css"></style></defs><path d="M583.111111 492.088889c11.377778-11.377778 34.133333-11.377778 45.511111 0 11.377778 11.377778 11.377778 34.133333 0 45.511111-11.377778 11.377778-34.133333 11.377778-45.511111 0-14.222222-11.377778-14.222222-34.133333 0-45.511111zM537.6 583.111111c-11.377778-11.377778-34.133333-11.377778-45.511111 0-11.377778 11.377778-11.377778 34.133333 0 45.511111 11.377778 11.377778 34.133333 11.377778 45.511111 0 11.377778-14.222222 11.377778-34.133333 0-45.511111zM395.377778 486.4c11.377778-11.377778 34.133333-11.377778 45.511111 0 11.377778 11.377778 11.377778 34.133333 0 45.511111-11.377778 11.377778-34.133333 11.377778-45.511111 0-11.377778-11.377778-11.377778-34.133333 0-45.511111zM531.911111 395.377778c-11.377778-11.377778-34.133333-11.377778-45.511111 0-11.377778 11.377778-11.377778 34.133333 0 45.511111 11.377778 11.377778 34.133333 11.377778 45.511111 0 11.377778-11.377778 11.377778-31.288889 0-45.511111z" p-id="1602" fill="#b3b6bf"></path><path d="M927.288889 335.644444l-241.777778-241.777777c-11.377778-11.377778-31.288889-11.377778-45.511111 0L96.711111 642.844444c-11.377778 11.377778-11.377778 31.288889 0 45.511112l241.777778 241.777777c11.377778 11.377778 31.288889 11.377778 45.511111 0l546.133333-546.133333c11.377778-14.222222 11.377778-34.133333-2.844444-48.355556z m-568.888889 512l-184.888889-184.888888 105.244445-105.244445 184.888888 184.888889-105.244444 105.244444z m156.444444-153.6l-184.888888-184.888888 179.2-179.2 184.888888 184.888888-179.2 179.2z m230.4-230.4l-184.888888-184.888888 105.244444-105.244445 184.888889 184.888889-105.244445 105.244444z" p-id="1603" fill="#b3b6bf"></path><path d="M159.288889 256c-14.222222 19.911111-25.6 42.666667-34.133333 65.422222-2.844444 8.533333 0 17.066667 8.533333 19.911111l39.822222 14.222223c8.533333 2.844444 17.066667 0 19.911111-8.533334 5.688889-17.066667 14.222222-34.133333 25.6-48.355555 5.688889-5.688889 2.844444-17.066667-2.844444-19.911111l-34.133334-25.6c-8.533333-5.688889-17.066667-5.688889-22.755555 2.844444zM253.155556 162.133333c19.911111-14.222222 42.666667-25.6 62.577777-34.133333 8.533333-2.844444 17.066667 0 19.911111 8.533333l14.222223 36.977778c2.844444 8.533333 0 17.066667-8.533334 19.911111-17.066667 8.533333-31.288889 17.066667-48.355555 25.6-5.688889 5.688889-17.066667 2.844444-19.911111-2.844444l-22.755556-31.288889c-5.688889-8.533333-5.688889-17.066667 2.844445-22.755556zM520.533333 164.977778l8.533334-39.822222c2.844444-8.533333-2.844444-17.066667-11.377778-19.911112-19.911111-2.844444-42.666667-5.688889-65.422222-5.688888h-8.533334c-8.533333 0-17.066667 8.533333-14.222222 17.066666l2.844445 39.822222c0 8.533333 8.533333 14.222222 17.066666 14.222223h5.688889c17.066667 0 34.133333 2.844444 48.355556 5.688889 8.533333 0 17.066667-5.688889 17.066666-11.377778zM176.355556 506.311111c2.844444 8.533333-2.844444 17.066667-11.377778 17.066667l-39.822222 8.533333c-8.533333 2.844444-17.066667-2.844444-19.911112-11.377778-5.688889-22.755556-5.688889-45.511111-5.688888-68.266666v-2.844445c0-8.533333 8.533333-17.066667 17.066666-14.222222l39.822222 2.844444c8.533333 0 14.222222 8.533333 14.222223 17.066667 0 17.066667 2.844444 34.133333 5.688889 51.2z" p-id="1604" fill="#b3b6bf"></path></svg>