<?xml version="1.0" standalone="no"?><!DOCTYPE svg PUBLIC "-//W3C//DTD SVG 1.1//EN" "http://www.w3.org/Graphics/SVG/1.1/DTD/svg11.dtd"><svg t="1648562230142" class="icon" viewBox="0 0 1024 1024" version="1.1" xmlns="http://www.w3.org/2000/svg" p-id="3296" fill="#b3b6bf" xmlns:xlink="http://www.w3.org/1999/xlink" width="200" height="200"><defs><style type="text/css"></style></defs><path d="M643.4 993.8c-26.8 0-51.2-18.1-58.1-45.2-8.2-32.1 11.3-64.8 43.4-72.9 0.7-0.2 76.9-20.1 146.6-62.2 37.6-22.7 65.6-47.2 83.4-72.8 19.2-27.5 25.9-56 20.6-87-7.1-41.7-21.1-51.2-25.7-54.3-15.3-10.4-44.6-13.8-87.1-10.2-50.3 4.3-115.3 17.9-190.5 33.7-80.8 16.9-172.4 36.1-278.1 51.1-55.1 7.8-101 5.8-140.3-6.1-41-12.4-73.2-35.4-95.8-68.3-28.1-41-39.3-95.8-33.3-162.8 4.2-47.1 17-101.4 38.1-161.4 34.7-99 80.1-180.4 82-183.8 16.2-28.9 52.8-39.2 81.7-23 28.9 16.2 39.2 52.7 23 81.6-0.4 0.8-42.8 77-74 166.4-50.5 144.9-29.8 198.8-18.5 215.2 4.3 6.3 12.3 15.4 31.6 21.2 21.9 6.6 51.7 7.3 88.6 2.1 101.7-14.4 191.3-33.2 270.3-49.7s147.3-30.8 204.8-35.8c33.1-2.8 61.2-2.4 85.9 1.2 30.9 4.6 56.7 14.2 78.9 29.3 21 14.3 38.3 33.5 51.2 56.9 11.9 21.6 20.2 46.6 25.3 76.4 5.6 33 4.5 65.5-3.5 96.8-7.2 28-19.9 55-37.7 80.4C928.4 850 887.6 886 835 917.5c-84.7 50.7-173 73.5-176.8 74.4-5 1.3-9.9 1.9-14.8 1.9z" p-id="3297" fill="#b3b6bf"></path></svg>