<?xml version="1.0" standalone="no"?><!DOCTYPE svg PUBLIC "-//W3C//DTD SVG 1.1//EN" "http://www.w3.org/Graphics/SVG/1.1/DTD/svg11.dtd"><svg t="1648559935853" class="icon" viewBox="0 0 1024 1024" version="1.1" xmlns="http://www.w3.org/2000/svg" p-id="7292" fill="#b3b6bf" xmlns:xlink="http://www.w3.org/1999/xlink" width="200" height="200"><defs><style type="text/css"></style></defs><path d="M883.2 140.8c-25.6 0-46.4 8-64 20.8V132.8c0-56-46.4-97.6-107.2-97.6-25.6 0-51.2 8-72 25.6C622.4 25.6 584 0 540.8 0c-56 0-102.4 38.4-107.2 89.6-17.6-12.8-38.4-20.8-64-20.8-59.2 0-107.2 43.2-107.2 97.6v328l-6.4-12.8c-38.4-51.2-110.4-68.8-166.4-38.4-30.4 17.6-46.4 43.2-56 72-8 30.4 0 64 20.8 89.6 0 0 140.8 184 200 260.8C336 972.8 456 1024 627.2 1024c273.6 0 366.4-161.6 366.4-299.2V238.4c-4.8-51.2-51.2-97.6-110.4-97.6z m16 580.8c0 51.2-16 217.6-276.8 217.6-140.8 0-238.4-38.4-302.4-123.2-60.8-78.4-196.8-260.8-196.8-260.8-4.8-8-8-12.8-4.8-20.8 0-4.8 4.8-12.8 12.8-12.8 17.6-8 46.4-4.8 59.2 17.6l84.8 102.4c12.8 12.8 30.4 17.6 46.4 12.8s30.4-20.8 30.4-38.4v-448c0-4.8 8-12.8 20.8-12.8s17.6 8 17.6 12.8v268.8c0 33.6 30.4 59.2 64 59.2s64-25.6 64-59.2V97.6c0-8 8-12.8 20.8-12.8s20.8 4.8 20.8 12.8v337.6c0 33.6 30.4 59.2 64 59.2s64-25.6 64-59.2V132.8c0-4.8 8-12.8 20.8-12.8s20.8 8 20.8 12.8v337.6c0 33.6 30.4 59.2 64 59.2s64-25.6 64-59.2V238.4c0-4.8 8-12.8 20.8-12.8s20.8 8 20.8 12.8v483.2z" p-id="7293" fill="#b3b6bf"></path></svg>