<?xml version="1.0" standalone="no"?><!DOCTYPE svg PUBLIC "-//W3C//DTD SVG 1.1//EN" "http://www.w3.org/Graphics/SVG/1.1/DTD/svg11.dtd"><svg t="1613973513102" class="icon" viewBox="0 0 1024 1024" version="1.1" xmlns="http://www.w3.org/2000/svg" p-id="1676" width="128" height="128" xmlns:xlink="http://www.w3.org/1999/xlink"><defs><style type="text/css"></style></defs><path d="M743.765 170.24h-457.344c-18.027 0-32.64 14.613-32.64 32.64v32.64c0 18.112 14.656 32.64 32.64 32.64h457.472c18.027 0 32.64-14.613 32.64-32.64v-32.64c0-17.984-14.72-32.64-32.768-32.64zM825.493 366.336h-620.736c0 0 0 0 0 0-18.027 0-32.64 14.613-32.64 32.64v32.64c0 18.112 14.656 32.64 32.64 32.64h620.736c18.027 0 32.64-14.613 32.64-32.64v-32.64c0.001-0.096 0.002-0.209 0.002-0.322 0-17.85-14.47-32.32-32.32-32.32-0.113 0-0.226 0.001-0.339 0.002zM727.445 562.304h-424.768c-18.027 0-32.64 14.613-32.64 32.64v32.704c0 17.92 14.656 32.64 32.64 32.64h424.768c18.038-0.036 32.659-14.613 32.768-32.63v-32.714c0-17.92-14.72-32.64-32.768-32.64zM858.005 758.4h-686.016c-18.027 0-32.64 14.613-32.64 32.64v32.704c0 17.92 14.656 32.64 32.64 32.64h686.144c18.038-0.036 32.659-14.613 32.768-32.63v-32.714c-0.073-18.042-14.715-32.64-32.768-32.64-0.045 0-0.090 0-0.135 0z" p-id="2555" fill="#f5f5f5"></path></svg>