<?xml version="1.0" standalone="no"?><!DOCTYPE svg PUBLIC "-//W3C//DTD SVG 1.1//EN" "http://www.w3.org/Graphics/SVG/1.1/DTD/svg11.dtd"><svg t="1613973513102" class="icon" viewBox="0 0 1024 1024" version="1.1" xmlns="http://www.w3.org/2000/svg" p-id="1676" width="128" height="128" xmlns:xlink="http://www.w3.org/1999/xlink"><defs><style type="text/css"></style></defs><path d="M137.536 202.816v32.64c0 17.984 14.528 32.64 32.64 32.64h457.472a32.64 32.64 0 0 0 32.64-32.64v-32.64a32.64 32.64 0 0 0-32.64-32.64H170.368a32.832 32.832 0 0 0-32.832 32.64z m0.192 196.096v32.64c0 17.92 14.528 32.64 32.64 32.64h620.736a32.64 32.64 0 0 0 32.64-32.64v-32.64a32.64 32.64 0 0 0-32.64-32.64H170.368a32.448 32.448 0 0 0-32.64 32.64z m32.64 163.328a32.768 32.768 0 0 0-32.832 32.64v32.64c0 17.984 14.656 32.64 32.704 32.64h424.768a32.768 32.768 0 0 0 32.704-32.64v-32.64c0-17.92-14.656-32.64-32.704-32.64H170.368z m0 196.16a32.768 32.768 0 0 0-32.832 32.64v32.64c0 17.984 14.656 32.64 32.704 32.64h686.144a32.64 32.64 0 0 0 32.64-32.64v-32.64a32.64 32.64 0 0 0-32.64-32.64H170.368z" fill="#697187" p-id="2411"></path></svg>