<?xml version="1.0" standalone="no"?><!DOCTYPE svg PUBLIC "-//W3C//DTD SVG 1.1//EN" "http://www.w3.org/Graphics/SVG/1.1/DTD/svg11.dtd"><svg t="1613973513102" class="icon" viewBox="0 0 1024 1024" version="1.1" xmlns="http://www.w3.org/2000/svg" p-id="1676" width="128" height="128" xmlns:xlink="http://www.w3.org/1999/xlink"><defs><style type="text/css"></style></defs><path d="M856.257 170.216H398.951c-18.128 0-32.63 14.667-32.63 32.63v32.63c0 18.127 14.667 32.63 32.63 32.63h457.471c18.127 0 32.63-14.667 32.63-32.63v-32.63c0-17.963-14.667-32.63-32.795-32.63z m0 196.105H235.474c-18.127 0-32.63 14.667-32.63 32.63v32.63c0 18.127 14.667 32.63 32.63 32.63h620.783c18.128 0 32.63-14.667 32.63-32.63v-32.63c0.164-18.127-14.502-32.63-32.63-32.63z m0 195.942H431.58c-17.963 0-32.63 14.667-32.63 32.63v32.63c0 17.963 14.667 32.63 32.63 32.63h424.841c17.963 0 32.63-14.667 32.63-32.63v-32.63c0-17.963-14.667-32.63-32.795-32.63z m0 196.105H170.215c-17.963 0-32.63 14.667-32.63 32.63v32.63c0 17.963 14.667 32.63 32.63 32.63h686.206c17.963 0 32.63-14.667 32.63-32.63v-32.63c0-17.963-14.667-32.63-32.795-32.63z" fill="#697187" p-id="2074"></path></svg>