<?xml version="1.0" standalone="no"?><!DOCTYPE svg PUBLIC "-//W3C//DTD SVG 1.1//EN" "http://www.w3.org/Graphics/SVG/1.1/DTD/svg11.dtd"><svg t="1613973513102" class="icon" viewBox="0 0 1024 1024" version="1.1" xmlns="http://www.w3.org/2000/svg" p-id="1676" fill="#697187" width="128" height="128" xmlns:xlink="http://www.w3.org/1999/xlink"><defs><style type="text/css"></style></defs><path d="M191.883489 949.714286l9.714285-48.571429q12.571429-4 35.142857-9.428571t41.142858-10.857143T311.883489 867.428571q16-20 23.428571-57.714285 0.571429-4 35.428571-165.142857t65.142858-310.571429T465.597774 164.571429v-14.285715q-13.714286-7.428571-31.142857-10.571428t-39.714286-4.571429-33.142857-3.142857l10.857143-58.857143q18.857143 1.142857 68.571429 3.714286t85.428571 4T595.31206 82.285714q27.428571 0 56.285714-1.428571t69.142857-4 56.285715-3.714286q-2.857143 22.285714-10.857143 50.857143-17.142857 5.714286-58 16.285714T646.169203 159.428571q-4.571429 10.857143-8 24.285715t-5.142857 22.857143-4.285715 26-3.714285 24q-15.428571 84.571429-50 239.714285T530.740631 699.428571q-1.142857 5.142857-7.428571 33.142858t-11.428571 51.428571-9.142858 47.714286-3.428571 32.857143l0.571429 10.285714q9.714286 2.285714 105.714285 17.714286-1.714286 25.142857-9.142857 56.571428-6.285714 0-18.571428 0.857143T559.31206 950.857143q-16.571429 0-49.714286-5.714286t-49.142857-5.714286q-78.857143-1.142857-117.714286-1.142857-29.142857 0-81.714285 5.142857T191.883489 949.714286z" p-id="9632" fill="#697187"></path></svg>