<?xml version="1.0" standalone="no"?><!DOCTYPE svg PUBLIC "-//W3C//DTD SVG 1.1//EN" "http://www.w3.org/Graphics/SVG/1.1/DTD/svg11.dtd"><svg t="1613974177154" class="icon" viewBox="0 0 1024 1024" version="1.1" xmlns="http://www.w3.org/2000/svg" p-id="7770" xmlns:xlink="http://www.w3.org/1999/xlink" width="128" height="128"><defs><style type="text/css"></style></defs><path d="M912.486 452.041v0h-687.071c-25.518 0-47.091 16.669-54.521 39.729v0l-59.946 184.682v-510.65h286.299c0 63.238 51.229 114.467 114.471 114.467v0h286.236v114.469h57.229v-114.469c0-31.588-25.639-57.236-57.229-57.236h-286.304c-31.586 0-57.234-25.645-57.234-57.231v0c0-31.589-25.58-57.234-57.234-57.234v0h-286.236c-31.587 0-57.234 25.646-57.234 57.234v686.941c0 31.589 25.646 57.229 57.234 57.229h686.943c25.518 0 47.091-16.663 54.521-39.729h0.063l117.116-360.974c0.001-31.587-25.516-57.169-57.106-57.234v0zM800.864 852.747h-689.914l111.498-343.471h689.909l-111.494 343.471z" p-id="7771" fill="#697187"></path></svg>