<svg width="16" height="16" viewBox="0 0 16 16" fill="none" xmlns="http://www.w3.org/2000/svg">
<path fill-rule="evenodd" clip-rule="evenodd" d="M3.22124 3.739L5.48224 6.008L7.70024 3.784L7.00025 3.084L5.98824 4.091L5.98024 2.491C5.97934 2.35567 6.03093 2.22525 6.12417 2.12716C6.21741 2.02908 6.34504 1.97095 6.48024 1.965H8.00024V1H6.48024C6.2852 1.00026 6.09213 1.03902 5.9121 1.11405C5.73207 1.18908 5.56862 1.29892 5.43112 1.43725C5.29363 1.57558 5.18479 1.73969 5.11085 1.92018C5.03691 2.10066 4.99932 2.29396 5.00024 2.489V4.1L3.92724 3.033L3.22124 3.739ZM9.89038 5.53277H9.90165C10.0838 5.84426 10.3524 6 10.7073 6C11.0998 6 11.4134 5.83236 11.6481 5.49708C11.8829 5.1618 12.0002 4.71728 12.0002 4.16353C12.0002 3.65304 11.8998 3.2507 11.6988 2.95652C11.4979 2.66234 11.2115 2.51525 10.8397 2.51525C10.434 2.51525 10.1214 2.70885 9.90165 3.09604H9.89038V1H9.00024V5.91888H9.89038V5.53277ZM9.8763 4.47177V4.13108C9.8763 3.88449 9.93452 3.6844 10.0509 3.53082C10.1693 3.37724 10.3176 3.30045 10.496 3.30045C10.6857 3.30045 10.8312 3.37833 10.9326 3.53407C11.0359 3.68765 11.0876 3.9018 11.0876 4.17651C11.0876 4.50746 11.0312 4.76379 10.9186 4.94549C10.8078 5.12503 10.6509 5.2148 10.4481 5.2148C10.281 5.2148 10.1439 5.14449 10.0369 5.00389C9.92982 4.86329 9.8763 4.68592 9.8763 4.47177ZM9.00024 12.7691C8.74457 12.923 8.37539 13 7.89272 13C7.3288 13 6.87241 12.8225 6.52354 12.4674C6.17468 12.1124 6.00024 11.6543 6.00024 11.0931C6.00024 10.4451 6.18662 9.93484 6.55938 9.5624C6.93453 9.18747 7.43513 9.00001 8.06118 9.00001C8.49367 9.00001 8.8067 9.0596 9.00024 9.17878V10.1769C8.76369 9.99319 8.49965 9.90132 8.20813 9.90132C7.88316 9.90132 7.62509 10.0006 7.43394 10.1993C7.24517 10.3954 7.15078 10.6673 7.15078 11.0149C7.15078 11.3526 7.24158 11.6183 7.42318 11.8119C7.60478 12.0031 7.85449 12.0987 8.17229 12.0987C8.45425 12.0987 8.73023 12.0068 9.00024 11.8231V12.7691ZM4.00024 7L3.00024 8V14L4.00024 15H11.0002L12.0002 14V8L11.0002 7H4.00024ZM4.00024 8H5.00024H10.0002H11.0002V9V13V14H10.0002H5.00024H4.00024V13V9V8Z" fill="#424242"/>
</svg>
