<svg width="16" height="16" viewBox="0 0 16 16" fill="none" xmlns="http://www.w3.org/2000/svg">
<path fill-rule="evenodd" clip-rule="evenodd" d="M11.6012 2.67683C11.7477 2.36708 11.9561 2.2122 12.2265 2.2122C12.4744 2.2122 12.6653 2.32987 12.7993 2.56522C12.9333 2.80056 13.0002 3.12243 13.0002 3.53082C13.0002 3.97383 12.922 4.32944 12.7655 4.59766C12.609 4.86589 12.3999 5 12.1383 5C11.9017 5 11.7226 4.87541 11.6012 4.62622H11.5937V4.93511H11.0002V1H11.5937V2.67683H11.6012ZM11.5843 3.77742C11.5843 3.94873 11.62 4.09063 11.6913 4.20311C11.7627 4.3156 11.8541 4.37184 11.9655 4.37184C12.1007 4.37184 12.2053 4.30002 12.2791 4.15639C12.3542 4.01103 12.3918 3.80597 12.3918 3.54121C12.3918 3.32144 12.3574 3.15012 12.2885 3.02726C12.2209 2.90266 12.1239 2.84036 11.9974 2.84036C11.8785 2.84036 11.7796 2.9018 11.7007 3.02466C11.6231 3.14752 11.5843 3.30759 11.5843 3.50487V3.77742ZM4.11993 7.695L2.00024 5.56781L2.66212 4.90594L3.66806 5.90625V4.39594C3.66719 4.21309 3.70243 4.03187 3.77175 3.86266C3.84107 3.69346 3.9431 3.53961 4.07201 3.40992C4.20091 3.28023 4.35414 3.17727 4.52292 3.10692C4.6917 3.03658 4.87271 3.00024 5.05556 3H7.39931V3.90469H5.05556C4.9288 3.91026 4.80915 3.96476 4.72173 4.05672C4.63432 4.14868 4.58596 4.27094 4.58681 4.39781L4.59431 5.89781L5.54306 4.95375L6.19931 5.61L4.11993 7.695ZM9.35585 4.93017H10.0002V3.22067C10.0002 2.40689 9.68559 2 9.05628 2C8.92122 2 8.77108 2.02421 8.60585 2.07263C8.44205 2.12104 8.31274 2.17691 8.21792 2.24022V2.90503C8.45499 2.70205 8.70499 2.60056 8.96792 2.60056C9.22941 2.60056 9.36016 2.75698 9.36016 3.06983L8.76102 3.17318C8.25384 3.25885 8.00024 3.57914 8.00024 4.13408C8.00024 4.39665 8.06131 4.60708 8.18343 4.76536C8.307 4.92179 8.47582 5 8.6899 5C8.98013 5 9.19924 4.83985 9.34723 4.51955H9.35585V4.93017ZM9.36016 3.57542V3.76816C9.36016 3.9432 9.31993 4.08845 9.23947 4.20391C9.15901 4.3175 9.05484 4.3743 8.92697 4.3743C8.83501 4.3743 8.76174 4.34264 8.70714 4.27933C8.65398 4.21415 8.6274 4.13128 8.6274 4.03073C8.6274 3.80912 8.73803 3.6797 8.9593 3.64246L9.36016 3.57542ZM7.00024 12.9302H6.35585V12.5196H6.34723C6.19924 12.8399 5.98013 13 5.6899 13C5.47582 13 5.307 12.9218 5.18343 12.7654C5.06131 12.6071 5.00024 12.3966 5.00024 12.1341C5.00024 11.5791 5.25384 11.2588 5.76102 11.1732L6.36016 11.0698C6.36016 10.757 6.22941 10.6006 5.96792 10.6006C5.70499 10.6006 5.45499 10.702 5.21792 10.905V10.2402C5.31274 10.1769 5.44205 10.121 5.60585 10.0726C5.77108 10.0242 5.92122 10 6.05628 10C6.68559 10 7.00024 10.4069 7.00024 11.2207V12.9302ZM6.36016 11.7682V11.5754L5.9593 11.6425C5.73803 11.6797 5.6274 11.8091 5.6274 12.0307C5.6274 12.1313 5.65398 12.2142 5.70714 12.2793C5.76174 12.3426 5.83501 12.3743 5.92697 12.3743C6.05484 12.3743 6.15901 12.3175 6.23947 12.2039C6.31993 12.0885 6.36016 11.9432 6.36016 11.7682ZM9.26189 13C9.58368 13 9.82979 12.9423 10.0002 12.8268V12.1173C9.82024 12.2551 9.63625 12.324 9.44827 12.324C9.2364 12.324 9.06994 12.2523 8.94887 12.1089C8.8278 11.9637 8.76727 11.7644 8.76727 11.5112C8.76727 11.2505 8.83019 11.0466 8.95604 10.8994C9.08348 10.7505 9.25552 10.676 9.47217 10.676C9.66651 10.676 9.84254 10.7449 10.0002 10.8827V10.1341C9.87121 10.0447 9.66253 10 9.3742 10C8.95684 10 8.6231 10.1406 8.373 10.4218C8.1245 10.7011 8.00024 11.0838 8.00024 11.5698C8.00024 11.9907 8.11653 12.3343 8.34911 12.6006C8.58169 12.8669 8.88595 13 9.26189 13ZM2.00024 9L3.00024 8H12.0002L13.0002 9V14L12.0002 15H3.00024L2.00024 14V9ZM3.00024 9V14H12.0002V9H3.00024ZM6.00024 7L7.00024 6H14.0002L15.0002 7V12L14.0002 13V12V7H7.00024H6.00024Z" fill="#424242"/>
</svg>
