<?xml version="1.0" standalone="no"?><!DOCTYPE svg PUBLIC "-//W3C//DTD SVG 1.1//EN" "http://www.w3.org/Graphics/SVG/1.1/DTD/svg11.dtd"><svg t="1614063397044" class="icon" viewBox="0 0 1024 1024" version="1.1" xmlns="http://www.w3.org/2000/svg" p-id="2409" fill="#b3b6bf" xmlns:xlink="http://www.w3.org/1999/xlink" width="128" height="128"><defs><style type="text/css"></style></defs><path d="M768 102.4A153.6 153.6 0 0 1 921.6 256v512A153.6 153.6 0 0 1 768 921.6H256A153.6 153.6 0 0 1 102.4 768V256A153.6 153.6 0 0 1 256 102.4h512z m0 76.8h-16.009v192c0 21.197-17.169 38.4-38.4 38.4H310.41a38.4 38.4 0 0 1-38.4-38.4v-192H256a76.8 76.8 0 0 0-76.8 75.537V768c0 41.984 33.69 76.117 75.537 76.8H768a76.8 76.8 0 0 0 76.8-75.537V256a76.8 76.8 0 0 0-75.537-76.8H768z m-84.275 0H340.309v162.133h343.382V179.2z m-72.534 42.667a10.678 10.678 0 0 1 10.684 10.683v46.934c0 5.87-4.778 10.65-10.684 10.65h-46.933a10.65 10.65 0 0 1-10.65-10.684v-46.9c0-5.905 4.78-10.683 10.65-10.683h46.933z" p-id="2410" fill="#b3b6bf"></path></svg>