<?xml version="1.0" standalone="no"?><!DOCTYPE svg PUBLIC "-//W3C//DTD SVG 1.1//EN" "http://www.w3.org/Graphics/SVG/1.1/DTD/svg11.dtd"><svg t="1613973513102" class="icon" viewBox="0 0 256 256" version="1.1" xmlns="http://www.w3.org/2000/svg" p-id="1676" width="128" height="128" xmlns:xlink="http://www.w3.org/1999/xlink"><defs><style type="text/css"></style></defs><path d="M 8.216 8.281 C 5.052 11.485, 3 14.444, 3 15.803 C 3 17.428, 17.950 33, 57.500 72.569 C 87.475 102.558, 112 127.412, 112 127.801 C 112 128.189, 87.475 153.029, 57.500 183 C 14.134 226.360, 3 238.012, 3 240.031 C 3 243.472, 12.577 253, 16.035 253 C 17.967 253, 30.399 241.106, 73 198.500 C 102.971 168.525, 127.824 144, 128.229 144 C 128.633 144, 153.475 168.525, 183.432 198.500 C 224.293 239.387, 238.482 253, 240.233 253 C 243.309 253, 253 243.282, 253 240.197 C 253 238.572, 238.050 223, 198.500 183.431 C 168.525 153.442, 144 128.588, 144 128.199 C 144 127.811, 168.525 102.971, 198.500 73 C 241.866 29.640, 253 17.988, 253 15.969 C 253 12.528, 243.423 3, 239.965 3 C 238.033 3, 225.601 14.894, 183 57.500 C 153.029 87.475, 128.176 112, 127.771 112 C 127.367 112, 102.525 87.475, 72.568 57.500 C 31.707 16.613, 17.518 3, 15.767 3 C 14.273 3, 11.552 4.903, 8.216 8.281" stroke="none" fill="#697187" fill-rule="evenodd"></path></svg>