<?xml version="1.0" standalone="no"?><!DOCTYPE svg PUBLIC "-//W3C//DTD SVG 1.1//EN" "http://www.w3.org/Graphics/SVG/1.1/DTD/svg11.dtd"><svg t="1613973513102" class="icon" viewBox="0 0 200 200" version="1.1" xmlns="http://www.w3.org/2000/svg" p-id="1676" width="128" height="128" xmlns:xlink="http://www.w3.org/1999/xlink"><defs><style type="text/css"></style></defs><path d="M 69.297 17.022 C 57.349 19.461, 47.035 30.845, 47.010 41.621 L 47 45.742 41.791 46.433 C 30.253 47.964, 22.120 53.929, 18.391 63.596 C 16.633 68.156, 16.500 71.795, 16.500 115.500 L 16.500 162.500 18.870 167.742 C 21.745 174.102, 27.025 179.074, 33.596 181.609 C 38.154 183.366, 41.785 183.500, 85 183.500 C 128.215 183.500, 131.846 183.366, 136.404 181.609 C 145.865 177.959, 151.862 169.972, 153.513 158.821 C 154.188 154.259, 154.311 154.124, 158.353 153.471 C 169.124 151.731, 178.562 144.460, 182.010 135.245 C 183.892 130.214, 183.999 127.416, 183.990 83.712 L 183.980 37.500 181.610 32.500 C 178.803 26.580, 173.059 20.799, 167.500 18.299 C 163.860 16.662, 159.453 16.485, 118.500 16.332 C 93.750 16.239, 71.608 16.550, 69.297 17.022 M 68 31.752 C 65.722 32.889, 63.714 35.058, 62.250 37.962 C 57.956 46.477, 55.352 45.847, 96.250 46.193 C 131.681 46.493, 132.616 46.552, 137.618 48.816 C 143.932 51.674, 148.191 55.966, 151.199 62.500 C 153.445 67.381, 153.507 68.361, 153.807 103.750 L 154.114 140 156.807 139.996 C 160.495 139.991, 165.613 136.684, 168.005 132.759 C 169.910 129.636, 169.993 127.640, 169.996 84.784 C 170 34.898, 169.988 34.795, 163.341 31.625 C 160.353 30.201, 154.473 30, 115.716 30.002 C 75.624 30.003, 71.174 30.166, 68 31.752 M 36.641 61.898 C 35.069 62.934, 32.934 65.069, 31.898 66.641 C 30.121 69.336, 30.013 72.106, 30.013 115 C 30.013 157.894, 30.121 160.664, 31.898 163.359 C 32.934 164.931, 35.069 167.066, 36.641 168.102 C 39.336 169.879, 42.106 169.987, 85 169.987 C 127.894 169.987, 130.664 169.879, 133.359 168.102 C 134.931 167.066, 137.066 164.931, 138.102 163.359 C 139.879 160.664, 139.987 157.894, 139.987 115 C 139.987 72.106, 139.879 69.336, 138.102 66.641 C 137.066 65.069, 134.931 62.934, 133.359 61.898 C 130.664 60.121, 127.894 60.013, 85 60.013 C 42.106 60.013, 39.336 60.121, 36.641 61.898" stroke="none" fill="#939395" fill-rule="evenodd"></path></svg>