<?xml version="1.0" standalone="no"?><!DOCTYPE svg PUBLIC "-//W3C//DTD SVG 1.1//EN" "http://www.w3.org/Graphics/SVG/1.1/DTD/svg11.dtd"><svg t="1613974586795" class="icon" viewBox="0 0 1024 1024" version="1.1" xmlns="http://www.w3.org/2000/svg" p-id="27023" xmlns:xlink="http://www.w3.org/1999/xlink" width="128" height="128"><defs><style type="text/css"></style></defs><path d="M955.733333 896H810.666667v106.666667c0 12.8-8.533333 21.333333-21.333334 21.333333s-21.333333-8.533333-21.333333-21.333333V896h-145.066667c-38.4 0-68.266667-29.866667-68.266666-68.266667v-119.466666c0-38.4 29.866667-68.266667 68.266666-68.266667H768v-64c0-12.8 8.533333-21.333333 21.333333-21.333333s21.333333 8.533333 21.333334 21.333333V640h145.066666c38.4 0 68.266667 29.866667 68.266667 68.266667v119.466666c0 38.4-29.866667 68.266667-68.266667 68.266667z m-332.8-213.333333c-12.8 0-25.6 12.8-25.6 25.6v119.466666c0 12.8 12.8 25.6 25.6 25.6H768v-170.666666h-145.066667z m358.4 25.6c0-12.8-12.8-25.6-25.6-25.6H810.666667v170.666666h145.066666c12.8 0 25.6-12.8 25.6-25.6v-119.466666z" fill="#697187" p-id="27024"></path><path d="M588.8 597.333333l-17.066667-42.666666H281.6L213.333333 725.333333H170.666667L341.333333 298.666667c12.8-29.866667 38.4-85.333333 85.333334-85.333334s76.8 51.2 85.333333 85.333334l119.466667 298.666666h-42.666667zM469.333333 298.666667c-12.8-21.333333-21.333333-42.666667-42.666666-42.666667s-34.133333 29.866667-42.666667 42.666667l-85.333333 213.333333h256l-85.333334-213.333333z" fill="#697187" p-id="27025"></path><path d="M874.666667 512c-12.8 0-21.333333-8.533333-21.333334-21.333333V170.666667c0-21.333333-21.333333-42.666667-42.666666-42.666667H85.333333c-21.333333 0-42.666667 21.333333-42.666666 42.666667v640c0 21.333333 21.333333 42.666667 42.666666 42.666666h354.133334l-89.6-89.6c-8.533333-8.533333-8.533333-21.333333 0-29.866666 8.533333-8.533333 21.333333-8.533333 29.866666 0l123.733334 123.733333c8.533333 4.266667 12.8 12.8 12.8 17.066667 0 4.266667-4.266667 12.8-4.266667 17.066666h-4.266667c-4.266667 0-4.266667 4.266667-8.533333 4.266667H85.333333c-46.933333 0-85.333333-38.4-85.333333-85.333333V170.666667c0-46.933333 38.4-85.333333 85.333333-85.333334h725.333334c46.933333 0 85.333333 38.4 85.333333 85.333334v320c0 12.8-8.533333 21.333333-21.333333 21.333333z" fill="#697187" p-id="27026"></path></svg>