<?xml version="1.0" standalone="no"?><!DOCTYPE svg PUBLIC "-//W3C//DTD SVG 1.1//EN" "http://www.w3.org/Graphics/SVG/1.1/DTD/svg11.dtd"><svg t="1613974288182" class="icon" viewBox="0 0 1024 1024" version="1.1" xmlns="http://www.w3.org/2000/svg" p-id="10536" fill="#b3b6bf" xmlns:xlink="http://www.w3.org/1999/xlink" width="128" height="128"><defs><style type="text/css"></style></defs><path d="M360.96 528.759467l9.386667-9.386667a99.413333 99.413333 0 0 0 24.866133-65.5872 99.84 99.84 0 1 0-199.68 0 99.601067 99.601067 0 0 0 99.84 99.84c25.224533 0 48.298667-9.386667 65.604267-24.866133z m-64.853333-148.1728a74.171733 74.171733 0 0 1 74.24 74.24A74.171733 74.171733 0 0 1 296.106667 529.066667 74.171733 74.171733 0 0 1 221.866667 454.826667a74.171733 74.171733 0 0 1 74.24-74.24z m540.893866 242.261333H187.989333a9.659733 9.659733 0 0 0-9.5232 9.5232v4.778667c0 5.154133 4.369067 9.5232 9.5232 9.5232h649.0112a9.659733 9.659733 0 0 0 9.5232-9.540267v-4.7616a9.659733 9.659733 0 0 0-9.5232-9.5232z m-155.904-152.5248h51.968c11.093333 0 19.438933 2.389333 25.3952 7.150933 5.9392 5.154133 9.1136 12.6976 10.308267 23.432534l2.389333 24.234666c1.194667 11.1104 3.959467 19.456 8.328534 25.412267h31.744c-6.365867-7.150933-10.325333-16.6912-11.52-28.194133l-3.1744-30.993067c-1.979733-19.063467-11.895467-30.173867-28.962134-34.1504v-0.392533c10.717867-2.781867 19.0464-8.362667 25.002667-17.083734 5.546667-7.953067 7.936-17.066667 7.936-27.016533 0-18.261333-5.973333-32.170667-17.851733-41.693867-11.1104-8.738133-26.589867-13.1072-46.421334-13.1072h-85.2992v193.024h29.354667v-80.622933h0.802133z m0-88.183467h51.575467c13.482667 0 23.3984 2.389333 29.7472 7.543467 5.956267 5.1712 9.130667 12.714667 9.130667 23.4496 0 10.325333-3.1744 18.261333-9.5232 23.432533-6.741333 5.546667-16.264533 8.328533-29.354667 8.328534h-51.575467v-62.754134zM521.216 554.120533c21.026133 0 38.877867-5.956267 53.5552-17.8688 15.872-12.714667 25.770667-30.190933 30.1568-52.821333H576.341333c-3.976533 15.086933-10.717867 26.624-20.241066 34.1504-9.1136 7.168-21.009067 10.734933-34.901334 10.734933-21.418667 0-37.6832-6.7584-47.616-20.258133-9.898667-12.714667-14.677333-30.583467-14.677333-53.623467 0-22.647467 4.778667-40.516267 14.677333-53.230933 10.325333-14.2848 26.197333-21.435733 46.813867-21.435733 13.892267 0 25.3952 3.1744 34.525867 9.130666 9.1136 5.956267 15.4624 15.872 18.6368 28.996267h28.5696c-3.1744-19.456-11.502933-34.952533-25.787734-46.472533-14.2848-11.52-32.938667-17.476267-55.534933-17.476267-30.941867 0-54.357333 10.325333-70.229333 30.583467-14.267733 17.8688-21.418667 41.301333-21.418667 69.905066 0 29.3888 6.741333 52.4288 20.6336 69.905067 15.872 19.456 39.662933 29.781333 71.406933 29.781333z" p-id="10537" fill="#b3b6bf"></path><path d="M710.058667 70.3488h175.342933a67.84 67.84 0 0 1 67.84 67.925333v175.547734h70.212267V138.666667c0-76.253867-61.883733-138.615467-138.4448-138.615467H709.666133v70.314667h0.392534zM71.338667 313.821867V138.666667c0-37.717333 30.549333-67.925333 67.84-67.925334H314.538667V0.0512H139.605333C63.402667 0.0512 1.1264 62.0032 1.1264 138.666667v175.5648H71.338667v-0.4096z m881.885866 395.997866v175.5648c0 37.717333-30.549333 67.925333-67.84 67.925334H710.058667v70.2976h175.342933c76.168533 0 138.4448-61.952 138.4448-138.615467V709.4272h-70.6048v0.392533z m-638.293333 243.473067H139.5712a67.84 67.84 0 0 1-67.84-67.925333V709.8368H1.143467v175.5648C1.143467 961.6384 63.0272 1024 139.588267 1024h175.342933v-70.7072z" p-id="10538" fill="#b3b6bf"></path></svg>