<?xml version="1.0" standalone="no"?><!DOCTYPE svg PUBLIC "-//W3C//DTD SVG 1.1//EN" "http://www.w3.org/Graphics/SVG/1.1/DTD/svg11.dtd"><svg t="1613973513102" class="icon" viewBox="0 0 1024 1024" version="1.1" xmlns="http://www.w3.org/2000/svg" p-id="1676" width="128" height="128" xmlns:xlink="http://www.w3.org/1999/xlink"><defs><style type="text/css"></style></defs><path d="M298.666667 792.96l55.168-55.125333a42.666667 42.666667 0 0 1 56.32-3.541334l4.010666 3.541334a42.666667 42.666667 0 0 1 3.541334 56.32l-3.541334 4.010666-128 128-1.877333 1.792-2.901333 2.346667-4.693334 3.029333-2.645333 1.322667-3.456 1.450667-3.242667 1.024-6.357333 1.28L256 938.666667l-3.498667-0.170667-5.077333-0.682667-4.736-1.28-4.736-1.877333-4.181333-2.218667-3.157334-2.133333-4.778666-4.138667-128-128a42.666667 42.666667 0 0 1 56.32-63.872l4.010666 3.541334L213.333333 792.96V231.04L158.165333 286.165333l-4.010666 3.541334A42.666667 42.666667 0 0 1 94.293333 229.845333l3.541334-4.010666 128-128 4.778666-4.138667 3.157334-2.133333 4.181333-2.218667 4.693333-1.877333 4.778667-1.28 5.077333-0.682667L256 85.333333l4.992 0.298667 6.357333 1.237333 3.242667 1.024 3.456 1.450667 2.602667 1.28 4.736 3.072 2.901333 2.346667 1.877333 1.792 128 128 3.541334 4.010666a42.666667 42.666667 0 0 1 0 52.309334l-3.541334 4.010666-4.010666 3.541334a42.666667 42.666667 0 0 1-52.309334 0l-4.010666-3.541334L298.666667 231.04v561.92zM896 810.666667a42.666667 42.666667 0 0 1 0 85.333333h-341.333333a42.666667 42.666667 0 0 1 0-85.333333h341.333333z m0-341.333334a42.666667 42.666667 0 0 1 0 85.333334h-341.333333a42.666667 42.666667 0 0 1 0-85.333334h341.333333z m0-341.333333a42.666667 42.666667 0 0 1 0 85.333333h-341.333333a42.666667 42.666667 0 0 1 0-85.333333h341.333333z" p-id="2141" fill="#697187"></path></svg>