<?xml version="1.0" standalone="no"?><!DOCTYPE svg PUBLIC "-//W3C//DTD SVG 1.1//EN" "http://www.w3.org/Graphics/SVG/1.1/DTD/svg11.dtd"><svg t="1613973513102" class="icon" viewBox="0 0 1024 1024" version="1.1" xmlns="http://www.w3.org/2000/svg" p-id="1676" width="128" height="128" xmlns:xlink="http://www.w3.org/1999/xlink"><defs><style type="text/css"></style></defs><path d="M86.500609 127.428571q-21.142857-1.142857-25.714286-2.285714l-1.714286-50.285714q7.428571-0.571429 22.857143-0.571429 34.285714 0 64 2.285715 75.428571 4 94.857143 4 49.142857 0 96-1.714286 66.285714-2.285714 83.428571-2.857143 32 0 49.142857-1.142857l-0.571428 8 1.142857 36.571428v5.142858q-34.285714 5.142857-70.857143 5.142857-34.285714 0-45.142857 14.285714-7.428571 8-7.428571 75.428571 0 7.428571 0.285714 18.571429t0.285714 14.571429l0.571429 130.857142 8 160q3.428571 70.857143 29.142857 115.428572 20 33.714286 54.857143 52.571428 50.285714 26.857143 101.142857 26.857143 59.428571 0 109.142857-16 32-10.285714 56.571429-29.142857 27.428571-20.571429 37.142857-36.571428 20.571429-32 30.285714-65.142858 12-41.714286 12-130.857142 0-45.142857-2-73.142858t-6.285714-70T769.92918 226.285714l-2.285714-33.714285q-2.857143-38.285714-13.714286-50.285715-19.428571-20-44-19.428571l-57.142857 1.142857-8-1.714286 1.142857-49.142857h48l117.142857 5.714286q43.428571 1.714286 112-5.714286l10.285714 1.142857q3.428571 21.714286 3.428572 29.142857 0 4-2.285714 17.714286-25.714286 6.857143-48 7.428572-41.714286 6.285714-45.142858 9.714285-8.571429 8.571429-8.571428 23.428572 0 4 0.857143 15.428571t0.857143 17.714286q4.571429 10.857143 12.571428 226.285714 3.428571 111.428571-8.571428 173.714286-8.571429 43.428571-23.428572 69.714286-21.714286 37.142857-64 70.285714-42.857143 32.571429-104 50.857143-62.285714 18.857143-145.714286 18.857143-95.428571 0-162.285714-26.285715-68-26.857143-102.285714-69.714285-34.857143-43.428571-47.428572-111.428572-9.142857-45.714286-9.142857-135.428571V271.428571q0-107.428571-9.714285-121.714285-14.285714-20.571429-84-22.285715z m850.285714 805.142858v-36.571429q0-8-5.142857-13.142857t-13.142857-5.142857H77.357751q-8 0-13.142857 5.142857t-5.142857 13.142857v36.571429q0 8 5.142857 13.142857t13.142857 5.142857h841.142858q8 0 13.142857-5.142857t5.142857-13.142857z" p-id="9484" fill="#f5f5f5"></path></svg>