<svg width="16" height="16" viewBox="0 0 16 16" fill="none" xmlns="http://www.w3.org/2000/svg">
<path fill-rule="evenodd" clip-rule="evenodd" d="M5.73828 3.31803C4.89437 4.16195 4.42029 5.30657 4.42029 6.50004C4.41987 7.17208 4.57064 7.83558 4.86145 8.44145C5.15226 9.04731 5.57561 9.58001 6.10022 10C6.03062 10.3287 5.99712 10.6641 6.00024 11V11.1701C5.84024 11.0601 5.68027 10.95 5.53027 10.83L1.75024 14.5L1.00024 13.84L4.80029 10.1501C4.21073 9.48341 3.79167 8.6836 3.57922 7.81938C3.36678 6.95515 3.36727 6.05229 3.58057 5.18827C3.79386 4.32426 4.21361 3.52488 4.80383 2.8588C5.39405 2.19273 6.13704 1.67988 6.96912 1.36418C7.80119 1.04847 8.69755 0.939388 9.58105 1.0463C10.4646 1.15322 11.3089 1.473 12.0416 1.97807C12.7744 2.48313 13.3737 3.15845 13.788 3.94608C14.2023 4.73372 14.4192 5.61009 14.4203 6.50004C14.4206 6.76784 14.4005 7.03533 14.3602 7.30009C14.0731 7.03926 13.7579 6.81114 13.4203 6.62003V6.50004C13.4203 5.30657 12.9461 4.16195 12.1022 3.31803C11.2583 2.47412 10.1138 2.00004 8.92029 2.00004C7.72681 2.00004 6.58219 2.47412 5.73828 3.31803ZM8.77793 7.67407C9.43573 7.23455 10.2091 7 11.0002 7C12.0611 7 13.0784 7.42149 13.8286 8.17163C14.5787 8.92178 15.0002 9.93913 15.0002 11C15.0002 11.7911 14.7657 12.5645 14.3261 13.2223C13.8866 13.8801 13.2619 14.3928 12.531 14.6956C11.8001 14.9983 10.9958 15.0774 10.2198 14.9231C9.4439 14.7688 8.73126 14.3878 8.17185 13.8284C7.61244 13.269 7.23147 12.5563 7.07713 11.7804C6.92279 11.0045 7.00191 10.2001 7.30467 9.46924C7.60742 8.73833 8.12014 8.1136 8.77793 7.67407ZM8.87888 13.1213C9.44149 13.6839 10.2046 14 11.0002 14C11.6233 14.0018 12.2314 13.8095 12.7402 13.45L8.55027 9.26001C8.1907 9.76883 7.99843 10.377 8.00022 11C8.00022 11.7956 8.31628 12.5587 8.87888 13.1213ZM9.26023 8.55005L13.4502 12.74C13.8097 12.2312 14.002 11.623 14.0002 11C14.0002 10.2044 13.6842 9.44127 13.1216 8.87866C12.559 8.31605 11.7959 8 11.0002 8C10.3772 7.9982 9.76905 8.19048 9.26023 8.55005Z" fill="#424242"/>
</svg>
