<?xml version="1.0" standalone="no"?><!DOCTYPE svg PUBLIC "-//W3C//DTD SVG 1.1//EN" "http://www.w3.org/Graphics/SVG/1.1/DTD/svg11.dtd"><svg t="1645187202100" class="icon" viewBox="0 0 1024 1024" version="1.1" xmlns="http://www.w3.org/2000/svg" p-id="5530" xmlns:xlink="http://www.w3.org/1999/xlink" width="200" height="200"><defs><style type="text/css"></style></defs><path d="M465.066667 672.711111c-24.177778 0-39.822222-24.177778-31.288889-46.933333l179.2-423.822222c14.222222-34.133333 64-34.133333 78.222222 0L871.822222 625.777778c9.955556 22.755556-7.111111 46.933333-31.288889 46.933333-14.222222 0-25.6-8.533333-31.288889-21.333333l-36.977777-92.444445H531.911111l-36.977778 92.444445c-4.266667 12.8-17.066667 21.333333-29.866666 21.333333z m285.866666-170.666667L652.8 256 554.666667 502.044444h196.266666zM157.866667 704c11.377778-11.377778 28.444444-11.377778 39.822222 0l45.511111 45.511111V204.8c0-15.644444 12.8-28.444444 28.444444-28.444444s28.444444 12.8 28.444445 28.444444v544.711111l45.511111-45.511111c11.377778-11.377778 28.444444-11.377778 39.822222 0 11.377778 11.377778 11.377778 28.444444 0 39.822222L292.977778 839.111111c-11.377778 11.377778-28.444444 11.377778-39.822222 0l-93.866667-93.866667c-12.8-11.377778-12.8-29.866667-1.422222-41.244444z" p-id="5531"></path></svg>