<?xml version="1.0" standalone="no"?>
<!DOCTYPE svg PUBLIC "-//W3C//DTD SVG 1.1//EN" "http://www.w3.org/Graphics/SVG/1.1/DTD/svg11.dtd"><svg t="1645187307517"
    class="icon" viewBox="0 0 1024 1024" version="1.1" xmlns="http://www.w3.org/2000/svg" p-id="8803"
    xmlns:xlink="http://www.w3.org/1999/xlink" width="200" height="200">
    <defs>
        <style type="text/css"></style>
    </defs>
    <path
        d="M894.195399 942.691513C883.425058 492.157543 519.546823 128.999859 68.67154 119.518926l49.300856 60.867594a18.961867 18.961867 0 0 1-29.466742 23.891953L10.951616 108.521042a18.961867 18.961867 0 0 1 2.806357-26.660385L109.553327 4.230772a18.961867 18.961867 0 1 1 23.891952 29.504666L74.094635 81.746886c466.006853 12.211443 841.98276 385.987773 857.683185 851.122379l50.05933-50.021406a18.961867 18.961867 0 0 1 26.774157 26.850004l-87.148743 87.148743a18.961867 18.961867 0 0 1-26.81208 0l-87.148743-87.148743a18.961867 18.961867 0 1 1 26.812081-26.850004l59.843653 59.843654z m-312.643269 20.478816a37.923735 37.923735 0 1 1-75.84747 0c0-251.32059-203.764227-455.084817-455.084817-455.084817a37.923735 37.923735 0 0 1 0-75.847469c293.226317 0 530.932287 237.70597 530.932287 530.932286z"
        p-id="8804"></path>
</svg>