<?xml version="1.0" standalone="no"?><!DOCTYPE svg PUBLIC "-//W3C//DTD SVG 1.1//EN" "http://www.w3.org/Graphics/SVG/1.1/DTD/svg11.dtd"><svg t="1613973513102" class="icon" viewBox="0 0 512 512" version="1.1" xmlns="http://www.w3.org/2000/svg" p-id="1676" width="128" height="128" xmlns:xlink="http://www.w3.org/1999/xlink"><defs><style type="text/css"></style></defs><path d="M 16 256 L 16 496 256 496 L 496 496 496 256 L 496 16 256 16 L 16 16 16 256 M 64 136 L 64 208 155.750 207.976 L 247.500 207.953 274.710 137.726 C 289.675 99.102, 302.210 66.712, 302.567 65.750 C 303.181 64.089, 297.098 64, 183.607 64 L 64 64 64 136 M 309.290 134.274 C 294.325 172.898, 281.790 205.287, 281.433 206.250 C 280.820 207.908, 285.187 208, 364.393 208 L 448 208 448 136 L 448 64 392.250 64.024 L 336.500 64.047 309.290 134.274 M 64 296 L 64 352 128 352 L 192 352 192 296 L 192 240 128 240 L 64 240 64 296 M 224 296 L 224 352 336 352 L 448 352 448 296 L 448 240 336 240 L 224 240 224 296 M 64 416 L 64 448 256 448 L 448 448 448 416 L 448 384 256 384 L 64 384 64 416" stroke="none" fill="#697187" fill-rule="evenodd"></path></svg>