<?xml version="1.0" standalone="no"?><!DOCTYPE svg PUBLIC "-//W3C//DTD SVG 1.1//EN" "http://www.w3.org/Graphics/SVG/1.1/DTD/svg11.dtd"><svg t="1620959014259" class="icon" viewBox="0 0 1024 1024" version="1.1" xmlns="http://www.w3.org/2000/svg" p-id="1383" xmlns:xlink="http://www.w3.org/1999/xlink" width="200" height="200"><defs><style type="text/css"></style></defs><path d="M832.2 127.9v766H192.7v-766h639.5m0-64H192.7c-35.3 0-64 28.7-64 64v766c0 35.3 28.7 64 64 64h639.5c35.3 0 64-28.7 64-64v-766c0-35.4-28.7-64-64-64z" fill="#b3b6bf" p-id="1384"></path><path d="M733.039 824.168v-32h97.9v32z" fill="#b3b6bf" p-id="1385"></path><path d="M896.2 958.3H425.4v-176c0-35.3 28.7-64 64-64h406.8c35.3 0 64 28.7 64 64v112c0 35.4-28.7 64-64 64z" fill="#b3b6bf" p-id="1386"></path><path d="M567 771c34.4 0 51.8 14.6 51.8 43.8 0 29.4-17.4 44.2-52.2 44.2h-35.4v54.8h-23.4V771H567z m-35.8 68h34c10.4 0 18-2 22.8-5.6 4.8-3.8 7.2-10 7.2-18.6 0-8.6-2.6-14.6-7.4-18.2-4.8-3.8-12.4-5.6-22.6-5.6h-34v48zM728.6 778.6c10 7.4 15.8 19 17.2 34.6h-23.2c-2-8.8-5.8-15.2-11-19-5.2-4-13.2-5.8-23.6-5.8-9 0-15.8 1.2-20.6 3.8-6 3-8.8 8-8.8 14.8 0 6 3.2 11 10 14.6 3 1.6 11.2 4.6 24.4 8.8 19.4 6 31.8 10.8 37.4 14 12.4 7.4 18.6 17.6 18.6 30.8 0 12.8-5 23-15 30.4-10 7.2-24.2 11-42.4 11-17.6 0-31.4-3.4-41.2-10.2-12-8.4-18.6-21.6-19.6-39.8H654c1.6 10.8 5.4 18.6 11.6 23.2 5.6 4 14.2 6.2 26 6.2 10.4 0 18.8-1.8 24.8-5.2 6-3.6 9.2-8.2 9.2-14.2 0-7.6-4.6-13.6-13.4-18-2.8-1.4-12-4.6-27.8-9.4-17.6-5.6-28.6-9.6-32.8-12-11-6.6-16.4-16.2-16.4-28.8s5.2-22.6 16-29.8c10-7 22.6-10.4 38-10.4 16.8 0 30 3.4 39.4 10.4zM821.2 771c23.2 0 40.6 6.4 52.6 19.2 11.4 12 17.2 29.4 17.2 52.2 0 22.6-5.8 40-17.2 52.2-12 12.8-29.4 19.2-52.6 19.2H769V771h52.2z m-28.8 122.8h24.4c17.8 0 30.8-4.2 39-12.4 8-8.4 12-21.4 12-39 0-18-4-31.2-12-39.2-8.2-8.2-21.2-12.2-39-12.2h-24.4v102.8z" fill="#b3b6bf" p-id="1387"></path><path d="M434.7 281.4c61.6 0 92.3 26.1 92.3 78.6 0 52.9-31.1 79.3-93 79.3h-67V540h-39.5V281.4h107.2zM367 405.6h64.4c19.6 0 33.7-3.6 42.7-10.9 8.7-7.2 13.4-18.8 13.4-34.8s-4.7-27.5-13.8-34c-9.1-7.2-23.2-10.9-42.4-10.9H367v90.6zM688.1 344.8c14.4 10.7 22.8 27.4 24.8 49.9h-33.5c-2.9-12.7-8.4-21.9-15.9-27.4-7.5-5.8-19-8.4-34.1-8.4-13 0-22.8 1.7-29.7 5.5-8.7 4.3-12.7 11.5-12.7 21.4 0 8.7 4.6 15.9 14.4 21.1 4.3 2.3 16.2 6.6 35.2 12.7 28 8.7 45.9 15.6 54 20.2 17.9 10.7 26.8 25.4 26.8 44.4 0 18.5-7.2 33.2-21.6 43.9-14.4 10.4-34.9 15.9-61.2 15.9-25.4 0-45.3-4.9-59.4-14.7-17.3-12.1-26.8-31.2-28.3-57.4h33.5c2.3 15.6 7.8 26.8 16.7 33.5 8.1 5.8 20.5 8.9 37.5 8.9 15 0 27.1-2.6 35.8-7.5 8.7-5.2 13.3-11.8 13.3-20.5 0-11-6.6-19.6-19.3-26-4-2-17.3-6.6-40.1-13.6-25.4-8.1-41.3-13.9-47.3-17.3-15.9-9.5-23.7-23.4-23.7-41.6 0-18.2 7.5-32.6 23.1-43 14.4-10.1 32.6-15 54.8-15 24.3 0 43.3 4.9 56.9 15z" fill="#b3b6bf" p-id="1388"></path></svg>