<?xml version="1.0" standalone="no"?><!DOCTYPE svg PUBLIC "-//W3C//DTD SVG 1.1//EN" "http://www.w3.org/Graphics/SVG/1.1/DTD/svg11.dtd"><svg t="1645187140239" class="icon" viewBox="0 0 1024 1024" version="1.1" xmlns="http://www.w3.org/2000/svg" p-id="3382" xmlns:xlink="http://www.w3.org/1999/xlink" width="200" height="200"><defs><style type="text/css"></style></defs><path d="M620.088889 366.933333c0-24.177778-24.177778-39.822222-46.933333-31.288889L150.755556 514.844444c-34.133333 14.222222-34.133333 64 0 78.222223l423.822222 179.2c22.755556 9.955556 46.933333-7.111111 46.933333-31.288889 0-14.222222-8.533333-25.6-21.333333-31.288889l-92.444445-36.977778V433.777778l92.444445-36.977778c11.377778-4.266667 19.911111-17.066667 19.911111-29.866667z m-170.666667 285.866667L203.377778 554.666667l246.044444-98.133334v196.266667zM662.755556 320c11.377778 11.377778 28.444444 11.377778 39.822222 0l45.511111-45.511111v544.711111c0 15.644444 12.8 28.444444 28.444444 28.444444s28.444444-12.8 28.444445-28.444444V274.488889l45.511111 45.511111c11.377778 11.377778 28.444444 11.377778 39.822222 0 11.377778-11.377778 11.377778-28.444444 0-39.822222L796.444444 184.888889c-11.377778-11.377778-28.444444-11.377778-39.822222 0l-93.866666 93.866667c-11.377778 11.377778-11.377778 29.866667 0 41.244444z" p-id="3383"></path></svg>