<?xml version="1.0" standalone="no"?><!DOCTYPE svg PUBLIC "-//W3C//DTD SVG 1.1//EN" "http://www.w3.org/Graphics/SVG/1.1/DTD/svg11.dtd"><svg t="1613973513102" class="icon" viewBox="0 0 256 256" version="1.1" xmlns="http://www.w3.org/2000/svg" p-id="1676" width="128" height="128" xmlns:xlink="http://www.w3.org/1999/xlink"><defs><style type="text/css"></style></defs><path d="M 7.096 16.265 C 5.774 16.944, 3.749 18.770, 2.596 20.323 L 0.500 23.147 0.500 129.500 C 0.500 235.495, 0.507 235.863, 2.571 238.677 C 3.710 240.230, 6.185 242.290, 8.071 243.255 C 11.292 244.904, 18.679 244.995, 129.827 244.755 L 248.154 244.500 251.577 240.765 L 255 237.029 255 130.150 C 255 23.278, 255 23.270, 252.912 20.615 C 248.230 14.663, 255.752 14.999, 127.300 15.015 C 35.798 15.026, 8.963 15.305, 7.096 16.265 M 19 52.004 L 19 70.009 127.750 69.754 L 236.500 69.500 236.773 51.750 L 237.046 34 128.023 34 L 19 34 19 52.004 M 19.671 88.662 C 19.302 89.031, 19 120.085, 19 157.671 L 19 226.009 127.750 225.754 L 236.500 225.500 236.500 157 L 236.500 88.500 128.421 88.246 C 68.978 88.106, 20.040 88.293, 19.671 88.662" stroke="none" fill="#939395" fill-rule="evenodd"></path></svg>